<svg fill="none" height="64" viewBox="0 0 534 64" width="534" xmlns="http://www.w3.org/2000/svg" xmlns:xlink="http://www.w3.org/1999/xlink"><linearGradient id="a" gradientUnits="userSpaceOnUse" x1=".850001" x2="62.62" y1="62.72" y2="1.81"><stop offset="0" stop-color="#ff9419"/><stop offset=".43" stop-color="#ff021d"/><stop offset=".99" stop-color="#e600ff"/></linearGradient><path d="m86.51 40.67c0 .85-.18 1.6-.54 2.26s-.86 1.17-1.52 1.53-1.4.54-2.25.54h-4.2v6.13h5.1c1.92 0 3.64-.43 5.17-1.29s2.73-2.05 3.6-3.56 1.31-3.21 1.31-5.11v-20.15h-6.66v19.65zm17.93-1.83h13.95v-5.63h-13.95v-6.39h15.42v-5.8h-21.91v30.1h22.34v-5.8h-15.85v-6.47zm17.94-11.85h8.92v24.12h6.66v-24.12h8.88v-5.97h-24.47v5.98zm47.23 9.04c-.52-.28-1.09-.49-1.68-.65.45-.13.88-.29 1.28-.49 1.1-.57 1.97-1.37 2.59-2.4s.94-2.21.94-3.55c0-1.53-.42-2.9-1.25-4.11-.83-1.2-2-2.14-3.5-2.82-1.5-.67-3.22-1.01-5.14-1.01h-13.37v30.1h13.63c2.02 0 3.82-.35 5.41-1.06 1.58-.71 2.81-1.69 3.69-2.96.87-1.26 1.31-2.7 1.31-4.32 0-1.49-.34-2.82-1.03-4s-1.64-2.09-2.87-2.74zm-13.67-9.96h5.91c.82 0 1.54.15 2.17.44s1.12.71 1.47 1.26c.35.54.53 1.18.53 1.91s-.18 1.42-.53 1.99-.84 1-1.47 1.31-1.35.46-2.17.46h-5.91v-7.38zm10.18 18.21c-.38.57-.92 1.01-1.61 1.32-.7.31-1.49.46-2.4.46h-6.17v-7.72h6.17c.89 0 1.68.17 2.38.5.69.33 1.24.79 1.62 1.39s.58 1.28.58 2.05-.19 1.43-.57 2zm29.73-5.33c1.67-.8 2.96-1.93 3.88-3.38s1.38-3.13 1.38-5.05-.45-3.54-1.35-4.98-2.18-2.55-3.83-3.34-3.56-1.18-5.74-1.18h-13.18v30.1h6.67v-10.96h4.34l6.11 10.96h7.61l-6.88-11.77c.34-.12.68-.25 1-.4zm-2.16-6.15c-.37.63-.9 1.12-1.59 1.45-.69.34-1.5.51-2.43.51h-6v-8.33h6c.93 0 1.74.17 2.43.5s1.22.82 1.59 1.44.56 1.36.56 2.2-.19 1.58-.56 2.21zm20.67-11.78-10.75 30.1h6.77l2.13-6.64h11.16l2.28 6.64h6.64l-11-30.1h-7.22zm-.34 18.42 3.46-10.62.41-1.93.41 1.93 3.7 10.62zm20.79 11.68h6.88v-30.1h-6.88zm31.14-9.74-12.94-20.36h-6.49v30.1h6.08v-20.36l12.88 20.36h6.56v-30.1h-6.08v20.36zm28.93-6.52c-1.18-.85-2.52-1.41-4.04-1.7l-5.12-1.05c-.8-.19-1.44-.52-1.91-1s-.71-1.08-.71-1.79c0-.65.17-1.21.52-1.69.34-.48.83-.85 1.45-1.12s1.34-.4 2.16-.4 1.56.14 2.19.42 1.12.67 1.47 1.18.53 1.08.53 1.73h6.67c-.04-1.75-.53-3.3-1.45-4.64-.92-1.35-2.21-2.4-3.85-3.16s-3.52-1.14-5.62-1.14-3.96.39-5.59 1.18-2.91 1.88-3.82 3.28-1.37 2.99-1.37 4.78c0 1.45.29 2.76.88 3.92.59 1.17 1.42 2.14 2.49 2.91 1.08.77 2.32 1.31 3.74 1.61l5.42 1.12c.89.21 1.59.6 2.11 1.16s.77 1.25.77 2.09c0 .67-.19 1.28-.57 1.81s-.91.94-1.59 1.23-1.48.43-2.4.43-1.79-.16-2.54-.48-1.33-.78-1.74-1.38c-.42-.59-.62-1.28-.62-2.05h-6.67c.03 1.88.53 3.53 1.52 4.97.98 1.43 2.33 2.55 4.05 3.35s3.69 1.2 5.91 1.2 4.22-.41 5.94-1.23c1.73-.82 3.07-1.95 4.04-3.39s1.45-3.07 1.45-4.89c0-1.49-.33-2.86-.98-4.12-.65-1.25-1.57-2.3-2.74-3.15zm20.83 16.26h5.35v-12.04h13.89v-4.86h-13.89v-8.34h14.75v-4.86h-20.1zm39.76-21.03c-1.76-1-3.73-1.5-5.89-1.5s-4.15.5-5.92 1.5-3.16 2.38-4.16 4.14-1.5 3.72-1.5 5.88.51 4.12 1.52 5.88 2.4 3.14 4.16 4.14 3.73 1.5 5.89 1.5 4.15-.5 5.91-1.5 3.15-2.38 4.16-4.14 1.52-3.72 1.52-5.88-.51-4.12-1.52-5.88c-1.01-1.75-2.4-3.13-4.16-4.14zm-.4 13.65c-.52 1.06-1.27 1.88-2.23 2.47s-2.06.88-3.29.88-2.33-.29-3.28-.88-1.69-1.41-2.21-2.47-.78-2.27-.78-3.63.26-2.59.78-3.66c.52-1.06 1.26-1.88 2.21-2.47s2.05-.88 3.28-.88 2.33.3 3.28.89 1.69 1.42 2.23 2.47c.53 1.05.8 2.27.8 3.64s-.26 2.57-.78 3.63zm24.15-1.89c0 1.03-.21 1.95-.63 2.76s-1.02 1.44-1.79 1.89-1.66.68-2.67.68c-.95 0-1.75-.2-2.42-.59s-1.18-.96-1.54-1.71-.54-1.65-.54-2.71v-13.07h-5.05v13.85c0 1.81.33 3.36.99 4.67.66 1.3 1.58 2.3 2.77 2.99s2.57 1.03 4.15 1.03c1.69 0 3.16-.39 4.42-1.18 1.01-.64 1.83-1.5 2.46-2.58v3.24h4.92v-22.02h-5.07zm25.98-12.23c-1.19-.69-2.57-1.03-4.15-1.03-1.69 0-3.16.39-4.42 1.18-1.01.63-1.82 1.5-2.46 2.56v-3.23h-4.92v22.02h5.07v-12.75c0-1.03.21-1.95.63-2.76s1.02-1.44 1.8-1.89c.77-.45 1.66-.68 2.67-.68.93 0 1.73.2 2.41.59s1.19.96 1.55 1.71.54 1.65.54 2.71v13.07h5.05v-13.85c0-1.81-.33-3.36-.99-4.67-.66-1.3-1.58-2.3-2.77-2.99zm25.02 2.77c-.71-1.08-1.61-1.96-2.72-2.6-1.37-.8-2.96-1.2-4.78-1.2-1.96 0-3.72.49-5.26 1.47s-2.75 2.35-3.62 4.11-1.31 3.74-1.31 5.95.44 4.19 1.31 5.94c.87 1.76 2.09 3.12 3.63 4.11 1.55.98 3.3 1.47 5.25 1.47 1.82 0 3.42-.4 4.78-1.2 1.11-.65 2.01-1.52 2.72-2.6v3.29h5.07v-30.11h-5.07v11.38zm-.8 11.36c-.53 1.05-1.27 1.88-2.21 2.47-.95.6-2.04.89-3.27.89s-2.28-.29-3.23-.88-1.68-1.41-2.2-2.47-.78-2.28-.78-3.66.26-2.59.78-3.64 1.26-1.88 2.2-2.47c.95-.59 2.02-.89 3.23-.89s2.32.3 3.27.89 1.68 1.42 2.21 2.47.8 2.27.8 3.64-.27 2.59-.8 3.64zm24.35-14.22c-1.33-.63-2.9-.95-4.69-.95s-3.25.3-4.59.89-2.41 1.41-3.2 2.45c-.8 1.04-1.27 2.21-1.43 3.51h5.01c.07-.52.28-.98.63-1.39s.83-.73 1.43-.98c.6-.24 1.3-.37 2.09-.37s1.5.13 2.09.4c.59.26 1.04.64 1.35 1.14.32.5.47 1.08.47 1.75v.44c-.06.29-.16.54-.3.72-.23.29-.54.45-.92.49l-5.44.62c-1.38.14-2.61.54-3.7 1.19s-1.94 1.48-2.56 2.48-.92 2.11-.92 3.31.32 2.31.96 3.28 1.52 1.72 2.63 2.27c1.12.54 2.39.82 3.81.82 1.59 0 2.96-.35 4.1-1.04 1.02-.62 1.81-1.5 2.4-2.61v3.14h5.01v-14.6c0-1.62-.37-3.03-1.11-4.24-.74-1.2-1.77-2.12-3.11-2.75zm-.84 13.35c0 .96-.2 1.8-.6 2.53-.4.72-.98 1.28-1.72 1.68s-1.6.59-2.56.59c-.75 0-1.41-.12-1.98-.37-.57-.24-1.02-.59-1.33-1.05-.32-.46-.47-.98-.47-1.57s.14-1.09.41-1.56.65-.85 1.14-1.15 1.05-.49 1.68-.56l5.44-.64v2.1zm16.32-19.15h-4.73v3.57c0 .53-.17.96-.49 1.3-.33.34-.77.51-1.31.51h-2.41l-.02 4.41h3.87l.02 11.76c0 1.12.26 2.12.78 3.01s1.25 1.58 2.19 2.08 2 .75 3.17.75h4.75v-4.41h-3.74c-.6 0-1.1-.2-1.49-.59s-.59-.89-.59-1.49l-.02-11.12h5.85l.02-4.41h-5.85zm8.6 3.05h5.78v-5.03h-5.78zm.36 24.34h5.07v-22.02h-5.07zm26.15-21.03c-1.76-1-3.73-1.5-5.89-1.5s-4.15.5-5.92 1.5-3.16 2.38-4.16 4.14-1.5 3.72-1.5 5.88.51 4.12 1.52 5.88 2.4 3.14 4.16 4.14 3.73 1.5 5.89 1.5 4.15-.5 5.91-1.5 3.15-2.38 4.16-4.14 1.52-3.72 1.52-5.88-.51-4.12-1.52-5.88c-1.01-1.75-2.4-3.13-4.16-4.14zm-.4 13.65c-.52 1.06-1.27 1.88-2.23 2.47s-2.06.88-3.29.88-2.33-.29-3.28-.88-1.69-1.41-2.21-2.47-.78-2.27-.78-3.63.26-2.59.78-3.66c.52-1.06 1.26-1.88 2.21-2.47s2.05-.88 3.28-.88 2.33.3 3.28.89 1.69 1.42 2.23 2.47c.53 1.05.8 2.27.8 3.64s-.26 2.57-.78 3.63zm28.47-11.14c-.66-1.3-1.58-2.3-2.77-2.99s-2.57-1.03-4.15-1.03c-1.69 0-3.16.39-4.42 1.18-1.01.63-1.82 1.5-2.46 2.56v-3.23h-4.92v22.02h5.07v-12.75c0-1.03.21-1.95.63-2.76s1.02-1.44 1.8-1.89c.77-.45 1.66-.68 2.67-.68.93 0 1.73.2 2.41.59s1.19.96 1.55 1.71.54 1.65.54 2.71v13.07h5.05v-13.85c0-1.81-.33-3.36-.99-4.67z" fill="#fff"/><path d="m20.34 3.66-16.68 16.68c-2.34 2.34-3.66 5.52-3.66 8.84v29.82c0 2.76 2.24 5 5 5h29.82c3.32 0 6.49-1.32 8.84-3.66l16.68-16.68c2.34-2.34 3.66-5.52 3.66-8.84v-29.82c0-2.76-2.24-5-5-5h-29.82c-3.32 0-6.49 1.32-8.84 3.66z" fill="url(#a)"/><path d="m48 16h-40v40h40z" fill="#000"/><path d="m30 47h-17v4h17z" fill="#fff"/></svg>