<?xml version="1.0" encoding="UTF-8"?> <svg xmlns="http://www.w3.org/2000/svg" width="721" height="595" viewBox="0 0 721 595" fill="none"> <path d="M380.78 190.39C380.78 85.2408 295.539 -1.52588e-05 190.39 -1.52588e-05C85.2408 -1.52588e-05 0 85.2408 0 190.39C0 295.54 85.2408 380.78 190.39 380.78C295.539 380.78 380.78 295.54 380.78 190.39Z" fill="#49B756"></path> <path d="M305.349 409.502C291.066 409.502 276.74 413.731 268.017 422.614V413.121H234.309V540.084H268.017L268.024 476.618C268.024 447.893 288.173 441.175 300.913 441.175C317.211 441.175 327.378 450.591 327.378 471.701L327.385 540.084H361.049V463.554C361.049 446.964 355.994 433.811 345.882 424.086C335.772 414.365 321.593 409.502 305.349 409.502Z" fill="#FFFFFF"></path> <path d="M415.215 462.767C416.285 455.635 419.852 449.835 425.919 445.373C431.981 440.917 438.94 438.684 446.791 438.684C454.819 438.684 461.596 440.871 467.128 445.24C472.657 449.613 475.959 455.454 477.03 462.767H415.215ZM446.791 409.783C427.164 409.783 411.021 416.163 398.356 428.915C385.686 441.673 379.356 457.594 379.356 476.684C379.356 495.949 385.867 511.964 398.891 524.716C411.911 537.473 428.328 543.851 448.129 543.851C462.044 543.851 474.71 540.062 486.128 532.477C497.543 524.896 504.545 514.681 509.541 501.837H474.396C472.263 505.336 469.56 508.344 465.978 510.724C460.311 514.488 454.025 516.111 447.119 516.111C437.29 516.111 428.909 512.947 422.447 506.615C417.172 501.451 414.442 495.209 413.529 487.893L512.353 487.923C512.708 485.961 512.888 482.036 512.888 476.148C512.888 457.241 506.732 441.453 494.424 428.782C482.114 416.118 466.233 409.783 446.791 409.783Z" fill="#FFFFFF"></path> <path d="M685.715 413.115L650.807 492.31L618.146 413.115H580.377L632.492 532.171L603.799 595H639.6L720.672 413.115H685.715Z" fill="#FFFFFF"></path> <path d="M531.939 540.013H565.656V349.622H531.939V540.013Z" fill="#FFFFFF"></path> <path d="M85.7663 512.463C66.0794 512.463 50.1204 496.503 50.1204 476.816C50.1204 457.129 66.0794 441.17 85.7663 441.17C105.453 441.17 121.412 457.129 121.412 476.816C121.412 496.503 105.453 512.463 85.7663 512.463ZM89.62 409.497C74.8105 409.497 61.1416 414.449 50.1204 422.812V413.116H16.4029V594.675H50.1204V530.638C61.1416 539.002 71.1674 543.953 89.62 543.953C126.133 543.953 155.734 514.05 155.734 476.724C155.734 438.468 127.104 409.497 89.62 409.497Z" fill="#FFFFFF"></path> <path d="M173.531 540.085H207.249V413.116H173.531V540.085Z" fill="#FFFFFF"></path> </svg> 