<?xml version="1.0" standalone="no"?>
<!DOCTYPE svg PUBLIC "-//W3C//DTD SVG 20010904//EN"
 "http://www.w3.org/TR/2001/REC-SVG-20010904/DTD/svg10.dtd">
<svg version="1.0" xmlns="http://www.w3.org/2000/svg"
 width="1024.000000pt" height="1024.000000pt" viewBox="0 0 1024.000000 1024.000000"
 preserveAspectRatio="xMidYMid meet">
<metadata>
Created by potrace 1.14, written by Peter Selinger 2001-2017
</metadata>
<g transform="translate(0.000000,1024.000000) scale(0.100000,-0.100000)"
fill="#000000" stroke="none">
<path d="M3990 9031 c-169 -89 -227 -120 -405 -218 -33 -19 -79 -43 -102 -54
-48 -22 -57 -37 -106 -165 -18 -49 -121 -303 -227 -564 -106 -261 -241 -594
-300 -740 -128 -316 -260 -642 -325 -800 -26 -63 -67 -164 -92 -225 -25 -60
-169 -416 -320 -790 -151 -374 -318 -786 -370 -915 -52 -129 -231 -570 -398
-980 -608 -1496 -875 -2160 -874 -2177 0 -16 2 -15 9 2 5 11 9 14 9 8 1 -19
24 -15 44 7 9 11 24 20 32 20 8 0 15 5 15 11 0 5 5 7 10 4 6 -3 10 -1 10 5 0
6 5 8 10 5 6 -3 10 -1 10 5 0 6 4 9 9 6 5 -3 11 1 15 9 3 8 11 15 18 15 9 0 8
-3 -2 -10 -8 -5 -10 -10 -5 -10 16 1 45 26 38 34 -4 4 1 4 11 0 13 -5 17 -4
12 4 -4 7 6 18 24 27 16 8 30 13 30 11 0 -3 -12 -12 -26 -19 -15 -8 -23 -17
-18 -20 10 -5 248 123 240 130 -2 2 -23 -5 -46 -17 -23 -12 -44 -20 -46 -17
-9 8 95 49 107 42 8 -5 10 -4 5 3 -8 13 70 56 85 47 5 -4 8 -1 7 6 -2 6 3 14
11 17 9 3 11 0 6 -8 -4 -7 11 -3 33 10 23 13 40 26 37 28 -2 3 -16 -3 -30 -12
-14 -9 -25 -13 -25 -9 0 14 58 41 67 32 11 -11 74 29 81 51 4 11 -2 9 -19 -5
l-24 -20 19 22 c10 12 23 21 30 20 6 -1 11 8 10 20 0 12 2 20 6 18 12 -7 41
67 34 87 -4 13 -2 18 4 14 13 -8 36 59 28 80 -4 10 -2 13 6 8 8 -5 9 -2 5 9
-4 10 -2 17 4 17 6 0 8 7 5 16 -4 10 -2 13 6 8 7 -5 9 0 6 14 -4 14 -2 20 5
15 6 -4 8 2 5 15 -4 14 -2 20 5 15 7 -4 8 0 4 11 -4 10 -3 15 3 11 9 -6 14 10
13 42 -1 7 3 13 9 13 5 0 6 5 3 10 -3 6 -1 10 5 10 7 0 10 7 6 15 -3 8 -1 15
5 15 6 0 8 4 5 9 -4 5 -1 11 4 13 6 2 12 13 13 26 0 12 5 22 10 22 5 0 7 7 3
15 -3 8 -1 15 5 15 6 0 9 7 5 15 -3 8 -1 15 5 15 6 0 8 4 4 9 -3 5 -1 12 5 16
6 4 8 11 5 16 -4 5 -1 9 5 9 6 0 8 5 5 10 -3 6 -1 10 5 10 7 0 10 7 6 15 -3 8
0 15 6 15 6 0 8 3 5 7 -4 3 -2 12 4 20 6 7 8 13 3 13 -5 0 -3 4 3 8 7 4 14 17
16 27 1 11 6 26 10 33 5 6 5 12 0 12 -4 0 -2 4 5 9 7 4 14 18 15 29 1 12 5 22
9 22 3 0 6 8 5 19 -1 19 104 290 315 814 70 175 128 322 128 327 0 15 85 66
315 190 255 137 453 246 560 310 44 26 148 85 230 130 83 46 206 117 274 158
96 58 125 71 132 61 12 -19 11 -42 -2 -76 -8 -18 -12 -147 -14 -378 -1 -192
-6 -643 -10 -1001 l-8 -652 329 165 c181 91 330 166 331 167 1 1 5 1393 9
3094 6 2642 5 3092 -7 3091 -8 -1 -97 -45 -199 -98z m-440 -2594 l0 -1074 -22
-20 c-13 -12 -81 -57 -153 -101 -71 -44 -138 -87 -147 -96 -10 -9 -18 -14 -18
-11 0 3 -9 -4 -20 -15 -12 -12 -25 -18 -30 -15 -6 4 -10 1 -10 -5 0 -6 -4 -8
-10 -5 -5 3 -22 -7 -37 -22 -14 -15 -23 -21 -19 -13 4 8 0 6 -8 -4 -9 -11 -16
-16 -16 -11 0 5 -6 1 -12 -8 -7 -9 -19 -17 -27 -19 -8 -2 -23 -11 -33 -21 -10
-10 -23 -15 -28 -12 -6 4 -10 1 -10 -5 0 -6 -5 -8 -10 -5 -6 3 -13 -1 -16 -9
-3 -9 -10 -13 -15 -10 -5 3 -12 -2 -15 -10 -3 -9 -10 -13 -15 -11 -4 3 -17 -3
-28 -14 -11 -11 -22 -17 -25 -14 -3 4 -6 1 -6 -5 0 -7 -5 -12 -11 -12 -17 0
-163 -90 -172 -106 -4 -7 -14 -11 -21 -8 -8 3 -19 -4 -26 -16 -6 -11 -15 -18
-21 -15 -5 4 -9 2 -9 -3 0 -9 -117 -88 -147 -99 -20 -8 -19 -4 46 157 28 69
114 289 192 490 381 984 447 1151 668 1705 167 415 210 515 222 515 5 0 9
-483 9 -1073z m-2340 -4641 c0 -2 -8 -10 -17 -17 -16 -13 -17 -12 -4 4 13 16
21 21 21 13z m-381 -210 c-2 -2 -15 -9 -29 -15 -24 -11 -24 -11 -6 3 16 13 49
24 35 12z"/>
<path d="M4685 8648 c0 -238 -4 -1585 -9 -2994 l-9 -2561 179 -87 c99 -48 215
-106 260 -128 50 -25 86 -38 94 -33 9 5 11 4 6 -3 -4 -8 19 -23 66 -44 40 -18
197 -94 348 -169 151 -75 322 -159 380 -187 300 -143 423 -203 677 -329 153
-76 307 -151 343 -167 36 -16 116 -54 177 -84 62 -31 115 -54 117 -51 3 2 6
163 8 356 l3 352 -217 104 c-120 58 -214 108 -210 111 3 4 -2 4 -12 0 -12 -5
-17 -4 -13 3 3 5 0 10 -8 10 -26 0 -95 36 -88 46 3 6 1 7 -5 3 -13 -8 -63 14
-56 25 3 5 -2 6 -10 3 -9 -3 -16 -2 -16 3 0 5 -6 10 -13 10 -12 0 -170 73
-512 238 -99 48 -229 110 -290 137 -104 47 -545 266 -554 274 -4 4 -2 3844 2
4857 1 242 0 442 -3 446 -13 19 -599 291 -627 291 -5 0 -8 -195 -8 -432z m585
-5834 c0 -2 -9 0 -20 6 -11 6 -20 13 -20 16 0 2 9 0 20 -6 11 -6 20 -13 20
-16z m65 -24 c3 -6 -1 -7 -9 -4 -18 7 -21 14 -7 14 6 0 13 -4 16 -10z"/>
<path d="M7880 7525 c-14 -8 -31 -14 -38 -15 -7 0 -97 -36 -200 -79 -103 -44
-457 -192 -787 -331 -330 -138 -618 -259 -640 -269 -22 -10 -92 -40 -156 -66
l-117 -48 -2 -366 c-1 -201 -3 -465 -5 -586 -2 -121 -6 -584 -10 -1030 -4
-445 -8 -835 -8 -865 -1 -53 0 -56 34 -73 247 -128 1688 -834 1764 -865 22 -9
55 -26 74 -39 19 -13 40 -23 49 -23 13 0 14 -74 11 -594 -2 -327 -2 -597 1
-599 3 -3 130 -68 283 -145 l277 -140 0 953 0 952 -172 81 c-95 44 -256 118
-358 165 -102 46 -291 133 -420 192 -129 59 -279 129 -335 155 -55 27 -122 57
-150 68 -27 12 -122 56 -210 98 -88 43 -163 77 -167 76 -3 -1 -6 510 -5 1135
l2 1136 440 188 c242 104 458 197 480 207 22 10 244 106 493 213 337 144 452
198 452 210 0 18 -52 54 -160 111 -36 20 -137 74 -226 122 -88 47 -162 86
-165 86 -2 -1 -15 -7 -29 -15z"/>
<path d="M8345 6566 c-60 -30 -209 -102 -330 -161 -121 -59 -278 -136 -350
-170 -71 -35 -228 -110 -348 -169 l-219 -106 6 -492 c2 -271 5 -602 5 -734 l1
-242 69 -41 c115 -68 1260 -631 1284 -631 12 0 78 32 147 71 68 38 345 181
615 317 269 135 492 247 494 249 2 1 3 344 2 760 -1 576 -5 761 -14 769 -7 6
-106 60 -222 119 -115 59 -268 138 -340 175 -529 274 -660 340 -677 339 -7 0
-62 -24 -123 -53z m115 -560 c0 -2 -8 -10 -17 -17 -16 -13 -17 -12 -4 4 13 16
21 21 21 13z m443 -299 l207 -101 1 -260 c0 -144 1 -305 2 -359 l2 -98 -85
-46 c-84 -46 -134 -73 -280 -150 -41 -22 -109 -59 -150 -81 -41 -22 -93 -49
-115 -61 l-40 -21 -65 34 c-36 18 -168 86 -295 151 -126 65 -259 133 -295 152
l-65 34 -5 282 c-3 155 -4 303 -2 328 l3 45 337 201 336 200 151 -74 c82 -41
243 -120 358 -176z"/>
<path d="M1034 1684 c-18 -14 -18 -15 4 -4 12 6 22 13 22 15 0 8 -5 6 -26 -11z"/>
</g>
</svg>
